<?xml version="1.0" encoding="utf-8"?>
<!-- Generator: Adobe Illustrator 21.0.2, SVG Export Plug-In . SVG Version: 6.00 Build 0)  -->
<svg version="1.1" xmlns="http://www.w3.org/2000/svg" xmlns:xlink="http://www.w3.org/1999/xlink" x="0px" y="0px"
	 viewBox="0 0 24 24" style="enable-background:new 0 0 24 24;" xml:space="preserve">
<style type="text/css">
	.st0{fill:#FFFFFF;}
	.st1{fill:#FFFFFF;stroke:#1078FF;stroke-linecap:round;stroke-linejoin:round;stroke-miterlimit:10;}
	.st2{fill:#CCE7FF;}
	.st3{fill:none;stroke:#1078FF;stroke-linecap:round;stroke-linejoin:round;stroke-miterlimit:10;}
	.st4{fill:#1078FF;}
	.st5{fill:none;}
</style>
<g id="Duotone">
	<polygon class="st0" points="11,21 16,23.5 19,21.5 21.5,10 15,6 11,8 7,6 0.5,10 3,21.5 6,23.5 	"/>
	<polyline class="st0" points="9.8,4.8 12.5,2 16.5,0.5 14.5,4.5 9.8,5 	"/>
	<path class="st2" d="M15,6l-4,2v13l5,2.5l3-2L21.5,10L15,6z M12.5,17.5v-6l2.5,3L12.5,17.5z"/>
	<polygon class="st2" points="9.5,11.5 9.5,17.5 7,14.5 	"/>
	<g>
		<polygon class="st3" points="11,21 16,23.5 19,21.5 21.5,10 15,6 11,8 7,6 0.5,10 3,21.5 6,23.5 		"/>
		<polygon class="st3" points="9.5,11.5 9.5,17.5 7,14.5 		"/>
		<polygon class="st3" points="12.5,11.5 12.5,17.5 15,14.5 		"/>
		<line class="st3" x1="11" y1="8" x2="8.5" y2="1.5"/>
		<polyline class="st3" points="9.8,4.8 12.5,2 16.5,0.5 14.5,4.5 9.8,5 		"/>
	</g>
</g>
<g id="Frames-24px">
	<rect class="st5" width="24" height="24"/>
</g>
</svg>
